<svg width="16" height="16" viewBox="0 0 16 16" fill="none" xmlns="http://www.w3.org/2000/svg">
<path d="M7.98567 9.13418e-06C6.09773 -0.00755901 4.26774 0.651647 2.81832 1.86141C1.3689 3.07117 0.393114 4.75381 0.0630016 6.61268C0.0551053 6.66075 0.0578421 6.70997 0.0710194 6.75687C0.0841967 6.80377 0.107494 6.84721 0.139272 6.88414C0.171049 6.92106 0.210535 6.95057 0.254948 6.97059C0.299361 6.99061 0.347623 7.00065 0.396335 7.00001H5.943C6.03141 7.00001 6.11619 6.96489 6.1787 6.90238C6.24122 6.83987 6.27633 6.75508 6.27633 6.66668V4.26668C6.27629 4.14106 6.31173 4.01798 6.37859 3.91162C6.44545 3.80527 6.54099 3.71997 6.65421 3.66555C6.76744 3.61114 6.89373 3.58982 7.01854 3.60405C7.14336 3.61829 7.26161 3.6675 7.35967 3.74601L12.0263 7.47934C12.1044 7.5418 12.1675 7.62102 12.2108 7.71115C12.2541 7.80128 12.2766 7.90001 12.2766 8.00001C12.2766 8.10001 12.2541 8.19874 12.2108 8.28887C12.1675 8.37899 12.1044 8.45822 12.0263 8.52068L7.35967 12.254C7.24139 12.3486 7.09444 12.4001 6.943 12.4C6.76668 12.3984 6.59801 12.3277 6.47333 12.203C6.34864 12.0783 6.2779 11.9097 6.27633 11.7333V9.33334C6.27633 9.24494 6.24122 9.16015 6.1787 9.09764C6.11619 9.03513 6.03141 9.00001 5.943 9.00001H0.400335C0.351701 9.00002 0.303645 9.01055 0.25946 9.03087C0.215275 9.05119 0.176006 9.08082 0.144346 9.11774C0.112685 9.15465 0.089381 9.19798 0.076031 9.24474C0.062681 9.29151 0.0596009 9.34061 0.0670016 9.38868C0.42756 11.379 1.52867 13.1588 3.1487 14.37C4.76873 15.5811 6.78741 16.1337 8.79841 15.9163C10.8094 15.699 12.6634 14.728 13.9873 13.1987C15.3112 11.6694 16.0066 9.69541 15.9337 7.67401C15.8319 5.62444 14.9537 3.69049 13.4774 2.26511C12.0011 0.839727 10.0375 0.0298419 7.98567 9.13418e-06Z" fill="#AECBDD"/>
</svg>
