<?xml version="1.0" standalone="no"?>
<!DOCTYPE svg PUBLIC "-//W3C//DTD SVG 20010904//EN"
 "http://www.w3.org/TR/2001/REC-SVG-20010904/DTD/svg10.dtd">
<svg version="1.0" xmlns="http://www.w3.org/2000/svg"
 width="500.000000pt" height="300.000000pt" viewBox="0 0 500.000000 300.000000"
 preserveAspectRatio="xMidYMid meet">
<metadata>
Created by potrace 1.16, written by Peter Selinger 2001-2019
</metadata>
<g transform="translate(0.000000,300.000000) scale(0.100000,-0.100000)"
fill="#000000" stroke="none">
<path d="M870 1925 l0 -345 345 0 345 0 0 345 0 345 -345 0 -345 0 0 -345z"/>
<path d="M1830 2245 c-222 -105 -274 -386 -104 -561 25 -25 70 -57 102 -72 49
-23 70 -27 147 -26 78 0 97 3 143 27 75 39 124 87 163 159 31 58 34 70 34 153
0 109 -26 175 -98 247 -72 71 -124 92 -237 96 -85 2 -101 0 -150 -23z"/>
<path d="M2601 2252 c-58 -22 -140 -98 -173 -159 -95 -175 -22 -397 160 -481
49 -23 70 -27 147 -26 78 0 97 3 143 27 75 39 124 87 163 159 32 58 34 70 34
153 0 77 -4 98 -27 147 -32 69 -97 136 -163 169 -66 32 -216 38 -284 11z"/>
<path d="M870 1100 l0 -250 55 0 55 0 0 250 0 250 -55 0 -55 0 0 -250z"/>
<path d="M3992 1317 c-63 -67 24 -174 96 -120 21 16 28 30 30 66 3 38 -1 48
-20 61 -33 23 -81 20 -106 -7z"/>
<path d="M1147 1200 c-76 -23 -127 -93 -127 -177 0 -165 207 -240 314 -113 79
95 47 227 -69 281 -43 20 -74 22 -118 9z"/>
<path d="M1517 1196 c-106 -39 -149 -154 -94 -251 41 -73 157 -110 215 -69 20
14 22 14 22 -3 -1 -57 -74 -78 -122 -35 -16 14 -22 13 -58 -3 -49 -22 -54 -29
-41 -54 33 -60 169 -83 251 -41 70 36 80 70 80 280 l0 180 -54 0 c-35 0 -56
-5 -59 -12 -3 -10 -7 -10 -18 -1 -24 19 -82 24 -122 9z m126 -118 c37 -43 6
-111 -51 -111 -83 0 -100 108 -22 136 23 8 53 -2 73 -25z"/>
<path d="M1915 1186 c-109 -56 -139 -185 -63 -272 51 -58 108 -78 180 -62 120
26 176 164 109 269 -51 81 -143 107 -226 65z"/>
<path d="M2531 1195 c-39 -18 -44 -18 -36 -5 4 6 -17 10 -54 10 l-61 0 0 -240
0 -240 61 0 61 0 -4 75 c-3 76 -1 84 19 64 6 -6 34 -11 62 -11 128 0 208 135
152 257 -22 49 -48 73 -98 91 -48 17 -60 17 -102 -1z m84 -125 c20 -22 23 -74
5 -95 -25 -30 -90 -25 -112 9 -13 20 -8 69 9 88 22 24 75 23 98 -2z"/>
<path d="M2857 1196 c-50 -18 -64 -31 -77 -72 -22 -64 14 -116 97 -140 54 -16
71 -34 31 -34 -12 0 -30 8 -40 17 -18 16 -21 16 -64 -7 -24 -14 -44 -28 -44
-33 0 -5 13 -21 28 -37 60 -60 181 -60 234 -1 60 67 24 154 -73 182 -24 7 -48
16 -54 21 -14 12 22 10 43 -3 14 -9 27 -7 60 10 23 12 42 27 42 35 0 19 -33
46 -77 62 -47 16 -59 16 -106 0z"/>
<path d="M3608 1194 c-16 -8 -28 -10 -28 -4 0 6 -24 10 -55 10 l-55 0 0 -175
0 -175 55 0 55 0 0 108 c0 120 10 146 51 140 24 -3 24 -4 27 -126 l3 -123 57
3 57 3 5 114 c4 94 8 116 23 125 12 8 22 8 35 0 14 -9 17 -29 20 -128 l3 -116
54 0 55 0 0 126 c0 152 -12 187 -74 215 -52 23 -73 24 -115 1 -33 -18 -35 -18
-70 0 -42 22 -67 22 -103 2z"/>
<path d="M2210 1025 l0 -175 55 0 55 0 0 175 0 175 -55 0 -55 0 0 -175z"/>
<path d="M3080 1081 c0 -66 5 -132 11 -148 27 -71 97 -104 168 -79 23 7 41 10
41 5 0 -5 25 -9 55 -9 l55 0 0 175 0 175 -55 0 -55 0 0 -103 c0 -112 -13 -147
-53 -147 -47 0 -52 12 -55 135 l-4 115 -54 0 -54 0 0 -119z"/>
</g>
</svg>
