<svg width="13" height="11" viewBox="0 0 13 11" fill="none" xmlns="http://www.w3.org/2000/svg">
<path d="M2.33205 4.9453C2.0257 4.48577 1.40483 4.3616 0.9453 4.66795C0.485771 4.9743 0.361597 5.59517 0.66795 6.0547L2.33205 4.9453ZM4.5 10L3.66795 10.5547C3.84625 10.8222 4.14226 10.9876 4.46349 10.9993C4.78472 11.0111 5.09201 10.8677 5.28935 10.6139L4.5 10ZM12.2894 1.61394C12.6284 1.17799 12.5499 0.549718 12.1139 0.210648C11.678 -0.128422 11.0497 -0.0498878 10.7106 0.386059L12.2894 1.61394ZM0.66795 6.0547L3.66795 10.5547L5.33205 9.4453L2.33205 4.9453L0.66795 6.0547ZM5.28935 10.6139L12.2894 1.61394L10.7106 0.386059L3.71065 9.38606L5.28935 10.6139Z" fill="white"/>
</svg>
